<svg xmlns="http://www.w3.org/2000/svg" width="699.999" height="167.685" viewBox="0 0 622 149">
  <defs>
    <style>
      .cls-1, .cls-3 {
        fill: #f5961d;
      }

      .cls-2, .cls-3, .cls-4 {
        fill-rule: evenodd;
      }

      .cls-4 {
        fill: #fff;
      }
    </style>
  </defs>
  <rect id="Rounded_Rectangle_1" data-name="Rounded Rectangle 1" class="cls-1" x="327" y="5" width="289" height="139" rx="10" ry="10"/>
  <path class="cls-2" d="M343,31.189V111h40c7.6,0,25-9.92,25-38.39,0-14.818-3.2-37.178-25-41.421C364.4,30.785,343,31.189,343,31.189Zm16,13.133V98.877h20s13-.943,13-27.277-14-27.277-14-27.277H359Z"/>
  <circle cx="448" cy="82" r="29"/>
  <ellipse class="cls-1" cx="447.5" cy="82.5" rx="13.5" ry="17.5"/>
  <path class="cls-2" d="M526,54h14v61s0.2,19-27,19-27-19-27-19l17,2s1.6,7,10,7,13-8,13-8V102s-6.6,8-17,8-23-4.933-23-27,10.6-30,23-30,17,9,17,9V54Z"/>
  <ellipse id="Ellipse_2_copy" data-name="Ellipse 2 copy" class="cls-1" cx="512.5" cy="82.5" rx="13.5" ry="17.5"/>
  <path class="cls-2" d="M604,87H566s-0.2,14,11,14,12-7,12-7l14,2s-3.6,16-26,16-26-20.133-26-29,3.2-30,26-30C606,53,604,87,604,87Z"/>
  <path class="cls-3" d="M566,78h23s0.4-14-12-14S566,78,566,78Z"/>
  <path class="cls-4" d="M67,51L51,50s0.026-10-14-10c-10.276,0-13,3.169-13,6s0.3,7.194,13,11c16.213,4.859,32,7.769,32,25s-11.174,25-32,25C6.574,107,5,81,5,81H21s2.826,13,18,13S53,83.769,53,82c0-.828.771-5.238-10-8C27.149,69.935,9,67.77,9,49,9,24.231,32.826,27,39,27,67.774,27,67,51,67,51Zm14-2H96v8a24.99,24.99,0,0,1,18-8c11.3,0,15,8,15,8s8.2-9,18-9,18,8.757,18,14,1,44,1,44H150V64a7.509,7.509,0,0,0-7-5c-2.576,0-12,1.882-12,11v37H116V66a7.46,7.46,0,0,0-7-7c-5.076,0-12,2.632-12,7v41H81V49Zm98,0h16V88s1.326,8,8,8,13-2.368,13-9V49h16v58H217V98s-6.674,10-18,10-20-9.368-20-19V49Zm106,0h14v66s-3.174,14-27,14c-29.826,0-27-19-27-19l16,2s1.951,6,10,6c16.674,0,13-21,13-21s-8.174,9-18,9-22-8.243-22-29,12.451-29,23-29,18,10,18,10V49ZM271,59s13,0.757,13,18-11.3,17-13,17-13-.993-13-17S271,59,271,59Z"/>
</svg>
